<?xml version="1.0" encoding="UTF-8"?>
<svg id="Layer_2" data-name="Layer 2" xmlns="http://www.w3.org/2000/svg" viewBox="0 0 534.2 181.85">
  <defs>
    <style>
      .cls-1 {
        fill: #fefefe;
      }
    </style>
  </defs>
  <g id="Layer_1-2" data-name="Layer 1">
    <path class="cls-1" d="M55.34,58.91c-.51-11-.99-21.52-1.49-32.2-4.19-.64-8.09-1.24-12.3-1.89,1.25,7.04,2.46,13.84,3.68,20.67-3.9,.25-7.64,.48-11.58,.73-.21-3.23-.39-6.24-.6-9.52-3.48,.22-7,.44-10.89,.69,.27,4.49,1.88,8.85,2.42,13.54-2.74,.17-5.42,.34-8.36,.53-.25-7.34-.5-14.57-.77-22.17-3.3-.23-6.35-.44-9.87-.69,1.05,12.84,2.06,25.23,3.1,37.93,4.41-.28,8.66-.55,13.31-.85-.3-1.76-.62-3.66-.99-5.86,11.36-.31,22.56-.61,34.34-.93"/>
    <path class="cls-1" d="M534.2,13.1c-9.75,.62-18.68,1.18-28.2,1.79,.69,10.86,.98,14.76,.97,22.64-10.97-10.14-15.97-15.66-28.33-28.33-7.32,.47-14.92,.95-23.14,1.48,.84,4.83,2.5,9.59,3.16,14.74,.04-.25,7.29-2.15,11.53-2.98,1.08,23.99-.07,36.4,.7,60.38,5.73-.63,11.23-.52,17.39-1.19-.43-10.41-3.6-21.12-4.27-32.53,14.91,13,32.87,28.63,32.87,28.63l10.89-2.24s4.54-37.88,6.45-62.39"/>
    <path class="cls-1" d="M388.69,31.67c.39,6.22,.78,12.28,1.2,18.92,11.53,1.41,23.17,3.3,31.21,3.91,.43,16.17,1.57,43.34,2.01,59.75,29.66-3.23,80.6-11.94,100.92-14.63,.91-5.82,2.32-12.73,3.26-18.78-9.99,1.78-70.23,9.46-85.62,10.46-.35-5.51-.12-1.87-.48-7.52,6.18-.09,8.85,.14,13.56-.16-.32-4.92-.47-9.6-.82-15.2-4.65,.36-8.33,1.15-11.86,1.58-.24-3.76-2.96-13.02-3.23-17.28,10.34-.36,15.3,.96,26.03,.59-1.5-6.19-2.19-16.28-3.26-20.57-21.3,.67-45.42,.06-72.91-1.07"/>
    <path class="cls-1" d="M337.68,125.22c8.76,.36,10.33-.16,31.74-1.35,.05-15.33-.12-55.6,.34-55.6,2.52,18.1,5.04,36.19,7.73,55.52,10.57-19.87,18.34-34.24,22.35-42.38-3.03,21.44-5.57,33.92-9.4,57.56,9.96,1.92,28.59,5.17,28.59,5.17,0,0,6.69-9.72,9.44-14.33-5.98-.87-5.32-.9-11.89-2.17-.01-19.68,.1-32.86,.55-62.3-4.53-1.7-22.94-7.69-22.94-7.69,0,0-9.42,11.31-10.92,13.06-.34-14.3-.67-27.53-.99-40.69-7.54-1.45-14.95-2.88-22.8-4.4-5.39,27.97-16.39,71.47-21.81,99.6"/>
    <path class="cls-1" d="M204.1,105.8c-10.6,1.16-20.58,2.24-30.75,3.35q1.56-5.17,3.49-11.08c4.7,.03,9.12,.05,14.2,.08,.32-5.19,.23-10.48,.36-16.41-7.08,.89-13.61,1.72-20.45,2.59,.02-4.03,.04-7.98,.06-12.39,10.6,.35,21.22,.72,32.46,1.1,.1-4.65-.24-13.68-.39-18.73-18.97,.24-37.35,.47-56.08,.7-.04,6.73-.07,12.98-.11,19.68,3.64,.36,10.08,1.78,13.37,1.94-.72,16.82-6.03,41.44-6.75,58.32,15.82,1.36,31.11-3.68,47.05-3.43,1.33-5.85,2.12-19.5,3.54-25.71"/>
    <path class="cls-1" d="M191.51,12.28c.32,5.03,1.82,28.63,2.15,33.82,3.19,.03,13.49,1.28,17.48,1.39-.94,13.08-5.16,36.69-6.35,49.88,17.17-1.97,21.95-2.64,37.9-4.77,.99-4.64,1.59-16.4,2.4-22.83-9.1,2.07-6.92,2.23-16.87,3.76-.28-4.42-.34-5.38-.63-9.83,4.71-.3,14.86-.95,19.62-1.25-.25-3.94-.79-12.41-1.07-16.82-6.54,.39-17.53,.38-24.36,1.05-.2-3.09-.39-6.13-.6-9.45,10.67-.44,27.91-1.3,38.9-1.75,.45-3.67,.14-21.24,.33-26.64-18.57,.86-49.49,3.17-68.92,3.44"/>
    <path class="cls-1" d="M9.81,149.81c6.26-.4,12.31-.78,18.49-1.17-.25-3.96-.49-7.79-.76-11.94,12.89,.16,25.76,.31,39.07,.48-.7-6.2-1.37-12.11-2.06-18.21-15.96,1.02-31.66,2.01-47.14,3-.37-5.84-.73-11.47-1.11-17.36,14.63-.53,28.87-1.05,43.35-1.58-.16-2.52-.3-4.67-.45-7.05-5.3,.34-10.61,.68-16.32,1.04-1.01-5.18-1.83-10.22-2.26-15.75,9.27-.26,18.45,.31,27.68,.16-.49-7.7-.96-15.12-1.44-22.6-2.99-.52-5.66-.98-8.61-1.49,.44,3.67,.86,7.2,1.33,11.21-19.7-.41-39.16-.81-58.98-1.22-.59,3.9-.72,7.8-.55,12,10.16-.49,20.09-.96,30.31-1.45-.16,3.89-.3,7.4-.46,11.32-8.24-.84-16.12-1.65-24.25-2.47,.27,5.8,0,11.58,.99,17.12,.72,3.97,.84,7.91,1.1,11.85,.69,10.96,1.19,21.93,1.77,32.9,.02,.3,.13,.6,.26,1.21"/>
    <path class="cls-1" d="M154.79,83.58c-10.1-4.03-20.21-8.05-31.12-12.4,9.5-16.17,18.79-31.97,28.7-48.83-9.41,.6-17.67,1.13-26.9,1.71-8.14,14.28-16.75,29.38-25.35,44.48-.42-.08-.84-.16-1.26-.24-.26-11.53-.53-23.05-.8-34.9-6,.38-18.2,1.16-24.29,1.54,1.5,33.65,2.99,67.13,4.51,101.1,9.04-.57,24.21-1.54,33.5-2.13-.41-13.36-.83-26.79-1.27-40.98,1.29-2.07,2.96-4.72,4.77-7.62,4.8,2.18,9.29,4.21,14.02,6.36-3.07,16.13-13.01,73.89-16.11,90.18,33.26-9.02,80.19-21.88,95.7-26.73,0-7.59-.08-9.15-.58-17.44-9.88,.62-46.75,11.3-61.79,13,2.75-22.33,5.48-44.48,8.27-67.1"/>
    <path class="cls-1" d="M253,42.77c-.12,25.74-.27,22.23-.94,48.32,35.85-1.23,36.92-1.73,64.1-3.2-5.66,17.87-13.65,40.51-20.26,58.94-14.32,.25-17.26-.26-31.28-1.71-1.89-11.85-3.51-18.32-4.87-31.3,7.4-.83,14.35-.84,20.61-1.65-.27,2.12-4.27,22.7-4.73,26.2q10.83-3.76,20.02-6.91c1.92-8.71,6.11-23.76,9.49-34.25-25.22,3.09-62.45,7.18-86.01,10.23-.41,15.97-1.12,27.59-1.57,44.81,38.65,6.5,61.53,11.24,103.41,17.39,9.44-45.94,26.4-116.12,35.17-165.8-12.3-1.09-14.87-2.69-27.76-3.84-2.05,15.72-5,51.39-7.05,67.13-12.56-.37-32.79-.14-45.38-.51,.93-3.33,5.56-22.83,5.56-22.83,0,0-7.28-.35-28.52-1.02"/>
  </g>
</svg>